<svg viewBox="0 0 16 17" fill="none" xmlns="http://www.w3.org/2000/svg">
<path d="M14 10.8639C13.6514 10.8639 13.3028 10.9648 13 11.1667C12.3944 11.5704 11.6056 11.5704 11 11.1667C10.3944 10.763 9.60555 10.763 9 11.1667C8.39445 11.5704 7.60555 11.5704 7 11.1667C6.39445 10.763 5.60555 10.763 5 11.1667C4.39445 11.5704 3.60555 11.5704 3 11.1667C2.69722 10.9648 2.34861 10.8639 2 10.8639M6 4.5V5.83333M8 4.5V5.83333M10 4.5V5.83333M6 2.5H6.00667M8 2.5H8.00667M10 2.5H10.0067M14 14.5V9.83333C14 9.09695 13.403 8.5 12.6667 8.5H3.33333C2.59695 8.5 2 9.09695 2 9.83333V14.5H14ZM12 8.5V7.16667C12 6.43029 11.403 5.83333 10.6667 5.83333H5.33333C4.59695 5.83333 4 6.43029 4 7.16667V8.5H12Z" stroke="#4A1FC0" stroke-width="1.33333" stroke-linecap="round" stroke-linejoin="round"/>
</svg>
