<svg viewBox="0 0 36 36" fill="none" xmlns="http://www.w3.org/2000/svg">
<path fill-rule="evenodd" clip-rule="evenodd" d="M8.39591 8.39548C8.5984 8.19324 8.87288 8.07965 9.15907 8.07965C9.44525 8.07965 9.71974 8.19324 9.92223 8.39548L17.7986 16.2718L25.675 8.39548C25.7738 8.28938 25.8931 8.20427 26.0255 8.14525C26.158 8.08622 26.301 8.05448 26.446 8.05193C26.591 8.04937 26.735 8.07604 26.8695 8.13036C27.004 8.18467 27.1261 8.26552 27.2287 8.36806C27.3312 8.47061 27.4121 8.59277 27.4664 8.72724C27.5207 8.86171 27.5474 9.00575 27.5448 9.15075C27.5423 9.29575 27.5105 9.43876 27.4515 9.57123C27.3925 9.7037 27.3074 9.82293 27.2013 9.9218L19.3249 17.7982L27.2013 25.6745C27.3074 25.7734 27.3925 25.8926 27.4515 26.0251C27.5105 26.1576 27.5423 26.3006 27.5448 26.4456C27.5474 26.5906 27.5207 26.7346 27.4664 26.8691C27.4121 27.0036 27.3312 27.1257 27.2287 27.2283C27.1261 27.3308 27.004 27.4117 26.8695 27.466C26.735 27.5203 26.591 27.547 26.446 27.5444C26.301 27.5418 26.158 27.5101 26.0255 27.4511C25.8931 27.3921 25.7738 27.307 25.675 27.2008L17.7986 19.3245L9.92223 27.2008C9.71751 27.3916 9.44673 27.4955 9.16696 27.4905C8.88718 27.4856 8.62024 27.3722 8.42237 27.1744C8.22451 26.9765 8.11117 26.7096 8.10623 26.4298C8.1013 26.15 8.20515 25.8793 8.39591 25.6745L16.2723 17.7982L8.39591 9.9218C8.19367 9.71931 8.08008 9.44482 8.08008 9.15864C8.08008 8.87245 8.19367 8.59797 8.39591 8.39548Z" fill="#1E1E1E"/>
</svg>
