<svg viewBox="0 0 35 36" fill="none" xmlns="http://www.w3.org/2000/svg">
<path d="M16.9167 30.628L16.9066 30.6236L16.875 30.6064C16.6896 30.5044 16.5058 30.3997 16.3235 30.2924C14.1316 28.99 12.0833 27.46 10.2125 25.7279C6.8992 22.6364 3.38867 18.0488 3.38867 12.3986C3.38867 8.18247 6.93664 4.83897 11.219 4.83897C12.4094 4.83314 13.5859 5.09577 14.6608 5.60732C15.7358 6.11887 16.6816 6.86619 17.4279 7.79369C18.1744 6.866 19.1204 6.11857 20.1956 5.60701C21.2708 5.09544 22.4476 4.83292 23.6383 4.83897C27.9192 4.83897 31.4671 8.18247 31.4671 12.3986C31.4671 18.0502 27.9566 22.6378 24.6433 25.7265C22.7725 27.4587 20.7242 28.9886 18.5323 30.291C18.35 30.3988 18.1662 30.5039 17.9808 30.6064L17.9492 30.6236L17.9391 30.6294L17.9348 30.6308C17.7786 30.7135 17.6046 30.7568 17.4279 30.7568C17.2512 30.7568 17.0772 30.7135 16.921 30.6308L16.9167 30.628Z" fill="#C9FAAD"/>
</svg>
