<svg viewBox="0 0 104 17" fill="none" xmlns="http://www.w3.org/2000/svg">
<g opacity="0.5" clip-path="url(#clip0_3090_22256)">
<path d="M62.3303 11.058H51.1959C51.5065 12.5267 52.3182 13.5499 53.6445 14.0572C55.7046 14.8441 57.5618 14.4568 59.1381 12.7791C59.8656 13.2814 60.582 13.7751 61.338 14.2985C60.2084 15.6347 58.8535 16.4687 57.2042 16.7941C54.4018 17.3471 51.8975 16.7681 49.9636 14.5843C48.1819 12.5712 47.8565 10.182 48.808 7.73341C49.7706 5.2576 51.7156 3.86317 54.3733 3.5489C56.9209 3.24824 59.1641 3.90648 60.8889 5.87377C62.1657 7.33129 62.5134 9.08577 62.3278 11.0592L62.3303 11.058ZM59.4511 8.63416C59.1084 7.01579 57.2562 5.83417 55.3396 5.92573C53.282 6.02472 51.624 7.2088 51.4681 8.63416H59.4511Z" fill="#0F0626"/>
<path d="M15.3924 11.0469C15.6176 12.7853 17.038 14.1079 18.8767 14.39C20.422 14.6264 21.7781 14.2576 22.8954 13.1478C23.1824 12.8632 23.3965 12.831 23.7256 13.0872C24.2589 13.5004 24.8317 13.8629 25.5036 14.3269C25.0582 14.7365 24.6845 15.1324 24.2601 15.464C21.4552 17.6515 17.0999 17.4969 14.5449 15.0483C12.5318 13.1193 11.9726 10.7041 12.8288 8.09841C13.7073 5.42092 15.6882 3.89411 18.5055 3.55261C21.2052 3.22473 23.5276 3.9869 25.2462 6.17072C26.2695 7.47111 26.5775 9.00287 26.5169 10.6324C26.4984 11.1347 26.1717 11.0456 25.876 11.0469C22.6219 11.0493 19.3679 11.0481 16.1138 11.0481H15.3949L15.3924 11.0469ZM23.6093 8.63169C23.0278 6.82648 21.1978 5.78468 19.1625 5.94801C17.3387 6.09401 15.7624 7.35233 15.6139 8.63169H23.6093Z" fill="#0F0626"/>
<path d="M93.2025 11.0469C93.5106 12.518 94.2492 13.5487 95.6078 14.0807C97.6258 14.8701 99.3567 14.4136 100.846 12.7878C101.533 13.2753 102.211 13.7553 102.925 14.2614C102.846 14.3925 102.8 14.5051 102.723 14.5893C100.851 16.6221 98.5129 17.362 95.8441 16.8201C93.2421 16.2905 91.4678 14.7204 90.718 12.127C89.7616 8.81235 91.3552 5.35413 94.4237 4.03146C97.5614 2.67911 101.319 3.78153 103.02 6.56296C103.738 7.73591 103.982 9.03011 104 10.3874C104.008 10.8823 103.858 11.063 103.331 11.0593C100.201 11.0358 97.0702 11.0481 93.9387 11.0481C93.7159 11.0481 93.492 11.0481 93.2037 11.0481L93.2025 11.0469ZM101.14 8.63789C100.705 6.95394 98.9633 5.83296 97.1012 5.94802C95.2353 6.06309 93.633 7.23109 93.4759 8.63789H101.138H101.14Z" fill="#0F0626"/>
<path d="M40.966 7.73468C40.1581 8.03782 39.3934 8.32363 38.5669 8.63296C37.9705 7.37216 37.0487 6.49121 35.6815 6.15095C34.7548 5.91958 33.8466 5.98021 32.9607 6.34645C31.2706 7.04428 30.256 8.70596 30.4156 10.5198C30.579 12.3795 31.794 13.8593 33.4816 14.254C35.7187 14.7786 37.1118 14.0486 38.604 11.5505C39.4157 11.7942 40.236 12.0392 41.0514 12.2842C40.3808 15.2401 37.264 17.2482 33.8553 16.9673C30.2523 16.6704 27.7258 14.0523 27.5538 10.432C27.4251 7.7285 29.0843 4.31729 33.2156 3.58853C36.5476 3.00082 39.9514 4.74911 40.9672 7.73468H40.966Z" fill="#0F0626"/>
<path d="M85.6962 16.9834C85.6752 16.6023 85.6442 16.2794 85.643 15.9564C85.638 13.7578 85.643 11.5604 85.6368 9.3617C85.6368 9.01402 85.6145 8.66263 85.5551 8.3199C85.3126 6.91682 84.3005 6.09649 82.8665 6.12C81.4189 6.14351 80.4414 6.97497 80.2373 8.37929C80.1791 8.78389 80.1569 9.19714 80.1556 9.60545C80.1482 12.0268 80.1519 14.4494 80.1519 16.9562C79.313 16.9562 78.5174 16.9698 77.7231 16.9389C77.6229 16.9351 77.446 16.7025 77.4472 16.5763C77.462 13.7021 77.394 10.8217 77.5573 7.9549C77.6934 5.57312 79.7226 3.74441 82.118 3.52664C84.4008 3.31878 86.321 3.92753 87.5781 5.97524C88.1745 6.94651 88.3762 8.04275 88.3885 9.16126C88.4133 11.5641 88.3861 13.9681 88.4059 16.3722C88.4096 16.8151 88.2995 17.0106 87.8256 16.9896C87.1475 16.9599 86.467 16.9822 85.6962 16.9822V16.9834Z" fill="#0F0626"/>
<path d="M10.8666 16.9599H8.19779C8.19779 16.0839 8.19779 15.2289 8.19779 14.374C8.19779 12.6294 8.21263 10.8836 8.19036 9.139C8.17057 7.58249 7.54079 6.60504 6.37526 6.22766C4.53912 5.63253 2.81311 6.76712 2.76114 8.68616C2.69185 11.1892 2.71165 13.6935 2.69309 16.1977C2.69185 16.439 2.69309 16.679 2.69309 16.95H0.0230198V16.2955C0.0230198 13.8951 0.0960199 11.4911 0.00446048 9.09322C-0.105658 6.23385 1.8208 3.18764 6.04491 3.49697C8.72982 3.69246 10.7577 5.67088 10.8839 8.49809C11.0064 11.2436 10.9186 13.9991 10.9211 16.7496C10.9211 16.8065 10.8926 16.8634 10.8666 16.9599Z" fill="#0F0626"/>
<path d="M42.999 7.1024H41.6504V4.68721C42.0624 4.66742 42.4831 4.64886 43.0003 4.62411C43.0003 3.95845 43.0089 3.30887 42.9966 2.65806C42.9904 2.30172 43.0993 2.1087 43.4878 2.02209C44.224 1.85753 44.9453 1.62368 45.7928 1.38489C45.7928 2.26955 45.8275 3.07874 45.7817 3.88421C45.7483 4.46203 45.9067 4.72309 46.5228 4.64638C46.8656 4.60308 47.217 4.63896 47.7205 4.63896C47.7205 5.39618 47.7304 6.11876 47.7082 6.8401C47.7057 6.92918 47.5387 7.02816 47.4285 7.0925C47.3667 7.12838 47.2677 7.10116 47.186 7.10364C46.2581 7.12756 45.7941 7.61423 45.7941 8.56364C45.7916 9.95806 45.7792 11.3537 45.7792 12.7481C45.7792 14.1562 46.0329 14.4197 47.4483 14.5199C47.5498 14.5274 47.6512 14.5484 47.8047 14.5707V16.9586C46.7468 17.0354 45.731 16.9723 44.7758 16.538C43.5657 15.9898 43.0894 14.9443 43.0535 13.7058C42.9978 11.7991 43.0151 9.89125 43.0015 7.98459C43.0003 7.72104 43.0015 7.45874 43.0015 7.10364L42.999 7.1024Z" fill="#0F0626"/>
<path d="M63.9856 3.68012H66.475C66.5023 4.24309 66.5282 4.78255 66.5629 5.48162C67.3362 4.48189 68.1912 3.86448 69.2998 3.61207C70.6175 3.31265 70.7276 3.37451 70.7189 4.6947C70.7165 5.16363 70.834 5.74516 70.6039 6.06562C70.4158 6.32916 69.7934 6.28586 69.3616 6.37494C68.2691 6.59889 67.4649 7.21135 67.1048 8.25686C66.8673 8.94355 66.7039 9.6884 66.6829 10.4122C66.626 12.3622 66.6631 14.3146 66.6631 16.2658C66.6631 16.4861 66.6631 16.7063 66.6631 16.955H63.9844V3.68012H63.9856Z" fill="#0F0626"/>
<path d="M72.2903 5.57812C72.4375 5.56327 72.5563 5.53976 72.6739 5.53976C73.3507 5.53605 74.0275 5.53853 74.7896 5.53853V16.9476H72.2891V5.57812H72.2903Z" fill="#0F0626"/>
<path d="M73.5895 4.02029C72.5563 4.03019 71.7372 3.34225 71.7286 2.45883C71.7199 1.58407 72.5588 0.855303 73.566 0.862727C74.5335 0.868914 75.3823 1.57912 75.4132 2.4081C75.4442 3.27173 74.609 4.01039 73.5895 4.02029Z" fill="#0F0626"/>
</g>
<defs>
<clipPath id="clip0_3090_22256">
<rect width="103.999" height="16.1367" fill="white" transform="translate(0 0.862793)"/>
</clipPath>
</defs>
</svg>
