<svg width="189" height="29" viewBox="0 0 189 29" fill="none" xmlns="http://www.w3.org/2000/svg">
<g clip-path="url(#clip0_2030_2225)">
<path d="M113.271 18.3223H93.0362C93.6005 20.9617 95.0756 22.8006 97.486 23.7123C101.23 25.1265 104.605 24.4305 107.47 21.4153C108.792 22.3181 110.094 23.2053 111.468 24.1459C109.415 26.5474 106.952 28.0461 103.955 28.6309C98.8622 29.6248 94.3111 28.5842 90.7966 24.6595C87.5587 21.0418 86.9673 16.748 88.6964 12.3476C90.4458 7.89816 93.9806 5.39218 98.8104 4.82739C103.44 4.28706 107.517 5.47001 110.651 9.00551C112.972 11.6249 113.604 14.7779 113.266 18.3246L113.271 18.3223ZM108.039 13.9663C107.416 11.0579 104.05 8.93435 100.567 9.0989C96.8272 9.27678 93.8142 11.4048 93.5308 13.9663H108.039Z" fill="#4521B8"/>
<path d="M27.9721 18.3023C28.3813 21.4265 30.9626 23.8035 34.304 24.3104C37.1124 24.7351 39.5769 24.0725 41.6073 22.078C42.129 21.5665 42.518 21.5087 43.1161 21.969C44.0852 22.7117 45.1263 23.3632 46.3472 24.197C45.5378 24.933 44.8587 25.6446 44.0875 26.2405C38.99 30.1718 31.0751 29.8939 26.4318 25.4934C22.7734 22.0268 21.7571 17.6864 23.3131 13.0035C24.9095 8.19167 28.5095 5.44777 33.6294 4.83406C38.5358 4.24481 42.7563 5.61454 45.8795 9.53917C47.7391 11.8762 48.299 14.629 48.1888 17.5574C48.1551 18.4602 47.5615 18.3001 47.0241 18.3023C41.1104 18.3068 35.1967 18.3045 29.283 18.3045H27.9766L27.9721 18.3023ZM42.9047 13.9619C41.8479 10.7177 38.5223 8.84541 34.8234 9.13892C31.509 9.4013 28.6444 11.6627 28.3746 13.9619H42.9047Z" fill="#4521B8"/>
<path d="M169.377 18.3023C169.937 20.9461 171.279 22.7984 173.748 23.7545C177.415 25.1732 180.561 24.3527 183.268 21.4309C184.516 22.307 185.749 23.1697 187.046 24.0792C186.902 24.3149 186.819 24.5172 186.679 24.6684C183.277 28.3218 179.028 29.6515 174.178 28.6776C169.449 27.7259 166.224 24.9041 164.862 20.2435C163.124 14.2865 166.02 8.07159 171.596 5.69457C177.299 3.2642 184.127 5.24541 187.219 10.244C188.523 12.352 188.966 14.6779 189 17.1171C189.013 18.0066 188.741 18.3312 187.784 18.3245C182.095 18.2823 176.406 18.3045 170.715 18.3045C170.31 18.3045 169.903 18.3045 169.379 18.3045L169.377 18.3023ZM183.801 13.973C183.012 10.9467 179.846 8.93211 176.462 9.13891C173.071 9.3457 170.159 11.4448 169.874 13.973H183.799H183.801Z" fill="#4521B8"/>
<path d="M74.4474 12.3498C72.9791 12.8946 71.5895 13.4082 70.0875 13.9641C69.0037 11.6983 67.3285 10.1151 64.8439 9.50359C63.1597 9.08778 61.5092 9.19673 59.8993 9.85491C56.8278 11.109 54.9839 14.0953 55.274 17.3551C55.5708 20.6971 57.7789 23.3565 60.8459 24.0658C64.9113 25.0086 67.4432 23.6967 70.1549 19.2073C71.63 19.6454 73.1208 20.0856 74.6026 20.5259C73.3839 25.838 67.7197 29.4469 61.525 28.9422C54.9772 28.4085 50.3856 23.7034 50.0731 17.1972C49.8392 12.3387 52.8546 6.20823 60.3625 4.89854C66.4178 3.84234 72.6036 6.98427 74.4497 12.3498H74.4474Z" fill="#4521B8"/>
<path d="M155.737 28.9711C155.699 28.2862 155.643 27.7058 155.64 27.1255C155.631 23.1742 155.64 19.2251 155.629 15.2738C155.629 14.649 155.589 14.0175 155.481 13.4015C155.04 10.88 153.201 9.40574 150.595 9.44798C147.964 9.49023 146.188 10.9845 145.817 13.5083C145.711 14.2354 145.67 14.978 145.668 15.7118C145.655 20.0634 145.661 24.4172 145.661 28.9221C144.137 28.9221 142.691 28.9466 141.247 28.891C141.065 28.8843 140.744 28.4663 140.746 28.2395C140.773 23.0741 140.649 17.8976 140.946 12.7456C141.193 8.46516 144.881 5.1787 149.234 4.78735C153.383 4.41379 156.873 5.50779 159.157 9.18782C160.241 10.9333 160.608 12.9034 160.63 14.9136C160.675 19.2318 160.625 23.5522 160.661 27.8726C160.668 28.6687 160.468 29.02 159.607 28.9822C158.375 28.9288 157.138 28.9688 155.737 28.9688V28.9711Z" fill="#4521B8"/>
<path d="M19.749 28.9288H14.8989C14.8989 27.3545 14.8989 25.818 14.8989 24.2815C14.8989 21.1463 14.9259 18.0088 14.8854 14.8735C14.8494 12.0763 13.7049 10.3196 11.5868 9.64145C8.24994 8.5719 5.1132 10.6109 5.01876 14.0597C4.89284 18.558 4.92882 23.0586 4.89509 27.5591C4.89284 27.9927 4.89509 28.4241 4.89509 28.911H0.0427118V27.7348C0.0427118 23.421 0.175377 19.1006 0.00898352 14.7913C-0.191138 9.65257 3.30986 4.1781 10.9864 4.734C15.8658 5.08532 19.5512 8.64084 19.7805 13.7217C20.0031 18.6559 19.8435 23.6078 19.848 28.5508C19.848 28.6531 19.7963 28.7554 19.749 28.9288Z" fill="#4521B8"/>
<path d="M78.1418 11.2135H75.6909V6.87307C76.4396 6.8375 77.2041 6.80414 78.144 6.75967C78.144 5.56338 78.1598 4.396 78.1373 3.22639C78.1261 2.586 78.3239 2.23912 79.03 2.08347C80.3679 1.78773 81.6788 1.36748 83.219 0.938324C83.219 2.52819 83.282 3.98241 83.1988 5.42997C83.1381 6.46838 83.4259 6.93756 84.5457 6.7997C85.1685 6.72187 85.8071 6.78635 86.7223 6.78635C86.7223 8.14719 86.7403 9.44576 86.6998 10.7421C86.6953 10.9022 86.3917 11.0801 86.1916 11.1957C86.0792 11.2602 85.8993 11.2113 85.7509 11.2157C84.0645 11.2587 83.2213 12.1333 83.2213 13.8396C83.2168 16.3455 83.1943 18.8538 83.1943 21.3597C83.1943 23.8902 83.6552 24.3638 86.2276 24.5439C86.412 24.5572 86.5964 24.595 86.8752 24.6351V28.9266C84.9527 29.0645 83.1066 28.9511 81.3707 28.1706C79.1716 27.1855 78.3059 25.3066 78.2407 23.0808C78.1395 19.6542 78.171 16.2255 78.1463 12.7989C78.144 12.3253 78.1463 11.8539 78.1463 11.2157L78.1418 11.2135Z" fill="#4521B8"/>
<path d="M116.282 5.06308H120.806C120.855 6.07482 120.902 7.0443 120.965 8.30062C122.371 6.50397 123.925 5.3944 125.939 4.94079C128.334 4.40268 128.534 4.51386 128.518 6.88642C128.514 7.72916 128.727 8.77425 128.309 9.35016C127.967 9.82378 126.836 9.74595 126.052 9.90605C124.066 10.3085 122.605 11.4092 121.95 13.2881C121.519 14.5222 121.222 15.8608 121.184 17.1616C121.08 20.666 121.148 24.1748 121.148 27.6814C121.148 28.0772 121.148 28.473 121.148 28.9199H116.279V5.06308H116.282Z" fill="#4521B8"/>
<path d="M131.372 8.47406C131.639 8.44738 131.855 8.40513 132.069 8.40513C133.299 8.39846 134.529 8.4029 135.914 8.4029V28.9066H131.37V8.47406H131.372Z" fill="#4521B8"/>
<path d="M133.735 5.67458C131.857 5.69237 130.369 4.45605 130.353 2.86841C130.337 1.29634 131.862 -0.0133549 133.692 -1.34024e-05C135.451 0.0111045 136.993 1.28744 137.049 2.77724C137.106 4.32931 135.588 5.65679 133.735 5.67458Z" fill="#4521B8"/>
</g>
<defs>
<clipPath id="clip0_2030_2225">
<rect width="189" height="29" fill="white"/>
</clipPath>
</defs>
</svg>
